<?xml version="1.0" encoding="utf-8"?>
<!-- Generator: Adobe Illustrator 24.1.2, SVG Export Plug-In . SVG Version: 6.00 Build 0)  -->
<svg version="1.1" id="Слой_1" xmlns="http://www.w3.org/2000/svg" xmlns:xlink="http://www.w3.org/1999/xlink" x="0px" y="0px"
	 viewBox="0 0 36 36" style="enable-background:new 0 0 36 36;" xml:space="preserve">
<style type="text/css">
	.st0{fill:#019973;}
</style>
<path class="st0" d="M18.4,2.4c-0.4,0-0.8,0.2-1.2,0.5l-8.6,8.6H2c-0.4,0-0.8,0.2-1.2,0.5s-0.5,0.7-0.5,1.2v9.9
	c0,0.4,0.2,0.8,0.5,1.2s0.7,0.5,1.2,0.5h6.7l8.6,8.6c0.3,0.3,0.7,0.5,1.2,0.5s0.8-0.2,1.2-0.5S20,32.4,20,32V4
	c0-0.4-0.2-0.8-0.5-1.2S18.9,2.4,18.4,2.4L18.4,2.4z"/>
<path class="st0" d="M31.9,18.7l3.5-3.5c0.2-0.2,0.3-0.5,0.3-0.8s-0.1-0.6-0.3-0.8L33.8,12c-0.2-0.2-0.5-0.3-0.8-0.3
	s-0.6,0.1-0.8,0.3l-3.5,3.5L25.2,12c-0.2-0.2-0.5-0.3-0.8-0.3s-0.6,0.1-0.8,0.3L22,13.6c-0.2,0.2-0.3,0.5-0.3,0.8s0.1,0.6,0.3,0.8
	l3.5,3.5L22,22.1c-0.2,0.2-0.3,0.5-0.3,0.8s0.1,0.6,0.3,0.8l1.6,1.6c0.2,0.2,0.5,0.3,0.8,0.3s0.6-0.1,0.8-0.3l3.5-3.5l3.5,3.5
	c0.2,0.2,0.5,0.3,0.8,0.3s0.6-0.1,0.8-0.3l1.6-1.6c0.2-0.2,0.3-0.5,0.3-0.8s-0.1-0.6-0.3-0.8C35.4,22.1,31.9,18.7,31.9,18.7z"/>
</svg>
