<?xml version="1.0" encoding="utf-8"?>
<!-- Generator: Adobe Illustrator 24.1.2, SVG Export Plug-In . SVG Version: 6.00 Build 0)  -->
<svg version="1.1" id="Слой_1" xmlns="http://www.w3.org/2000/svg" xmlns:xlink="http://www.w3.org/1999/xlink" x="0px" y="0px"
	 viewBox="0 0 36 36" style="enable-background:new 0 0 36 36;" xml:space="preserve">
<style type="text/css">
	.st0{fill:#019973;}
</style>
<path class="st0" d="M15,34.6V1.4c0-0.6-0.5-1.1-1.1-1.1H7.3c-0.6,0-1.1,0.5-1.1,1.1v33.2c0,0.6,0.5,1.1,1.1,1.1h6.6
	C14.5,35.7,15,35.2,15,34.6z"/>
<path class="st0" d="M28.7,0.3h-6.6c-0.6,0-1.1,0.5-1.1,1.1v33.2c0,0.6,0.5,1.1,1.1,1.1h6.6c0.6,0,1.1-0.5,1.1-1.1V1.4
	C29.8,0.8,29.3,0.3,28.7,0.3z"/>
</svg>
