<?xml version="1.0" encoding="utf-8"?>
<!-- Generator: Adobe Illustrator 24.1.2, SVG Export Plug-In . SVG Version: 6.00 Build 0)  -->
<svg version="1.1" id="Слой_1" xmlns="http://www.w3.org/2000/svg" xmlns:xlink="http://www.w3.org/1999/xlink" x="0px" y="0px"
	 viewBox="0 0 36 36" style="enable-background:new 0 0 36 36;" xml:space="preserve">
<style type="text/css">
	.st0{fill:#019973;}
</style>
<path class="st0" d="M18,2.9c-0.4,0-0.8,0.2-1.1,0.5l-8.2,8.2H2.1c-0.4,0-0.8,0.2-1.1,0.5s-0.5,0.7-0.5,1.1v9.5
	c0,0.4,0.2,0.8,0.5,1.1s0.7,0.5,1.1,0.5h6.5l8.2,8.2c0.3,0.3,0.7,0.5,1.1,0.5s0.8-0.2,1.1-0.5s0.5-0.7,0.5-1.1V4.5
	c0-0.4-0.2-0.8-0.5-1.1S18.4,2.9,18,2.9L18,2.9z"/>
<path class="st0" d="M28,21.5c0.7-1.1,1.1-2.2,1.1-3.5s-0.4-2.4-1.1-3.5s-1.6-1.9-2.8-2.3c-0.2-0.1-0.4-0.1-0.6-0.1
	c-0.4,0-0.8,0.2-1.1,0.5c-0.3,0.3-0.5,0.7-0.5,1.1c0,0.3,0.1,0.6,0.3,0.9s0.4,0.4,0.7,0.6c0.3,0.2,0.6,0.4,0.8,0.6s0.5,0.5,0.7,0.9
	s0.3,0.9,0.3,1.4s-0.1,1-0.3,1.4c-0.2,0.4-0.4,0.7-0.7,0.9s-0.6,0.4-0.8,0.6c-0.3,0.2-0.5,0.4-0.7,0.6S23,22,23,22.4
	c0,0.4,0.2,0.8,0.5,1.1c0.3,0.3,0.7,0.5,1.1,0.5c0.2,0,0.5,0,0.6-0.1C26.4,23.4,27.3,22.6,28,21.5L28,21.5z"/>
<path class="st0" d="M33.3,25c1.4-2.1,2.1-4.5,2.1-7c0-2.5-0.7-4.9-2.1-7c-1.4-2.1-3.3-3.7-5.6-4.7c-0.2-0.1-0.4-0.1-0.6-0.1
	c-0.4,0-0.8,0.2-1.1,0.5s-0.5,0.7-0.5,1.1c0,0.6,0.3,1.1,1,1.5c0.9,0.5,1.6,0.8,1.9,1.1c1.2,0.9,2.2,2,2.9,3.4s1,2.8,1,4.3
	c0,1.5-0.3,3-1,4.3c-0.7,1.3-1.6,2.5-2.9,3.4c-0.3,0.2-1,0.6-1.9,1.1c-0.6,0.3-1,0.8-1,1.5c0,0.4,0.2,0.8,0.5,1.1s0.7,0.5,1.1,0.5
	c0.2,0,0.4,0,0.6-0.1C30.1,28.7,31.9,27.1,33.3,25L33.3,25z"/>
</svg>
